<?xml version="1.0" encoding="UTF-8" standalone="no"?>
<svg width="200px" height="34px" viewBox="0 0 200 34" version="1.1" xmlns="http://www.w3.org/2000/svg" xmlns:xlink="http://www.w3.org/1999/xlink">
    <!-- Generator: Sketch 3.7.1 (28215) - http://www.bohemiancoding.com/sketch -->
    <title>logotype.svg</title>
    <desc>Created with Sketch.</desc>
    <defs></defs>
    <g stroke="none" stroke-width="1" fill="none" fill-rule="evenodd">
        <g fill="#FFFFFF">
            <path d="M23.4432234,24.5421245 C20.8267923,26.0596546 17.6347462,26.7922554 13.8147567,26.7922554 C9.52380952,26.7922554 6.1747776,25.588697 3.71533229,23.2339089 C1.25588697,20.8791209 1.77635684e-15,17.8963893 1.77635684e-15,13.762428 C1.77635684e-15,9.57613815 1.36054422,6.59340659 4.02930403,3.97697541 C6.69806384,1.36054422 10.3087389,0.0523286238 14.7566719,0.0523286238 C17.5824176,0.0523286238 20.0418629,0.41862899 22.1873365,1.20355835 L22.1873365,6.80272109 C20.1465201,5.59916274 17.6347462,5.02354788 14.6520147,5.02354788 C12.1925693,5.02354788 10.151753,5.65149137 8.47723705,7.37833595 C6.90737834,9.00052329 6.27943485,10.7796965 6.27943485,13.5007849 C6.27943485,16.2218734 6.95970696,18.0533752 8.3725798,19.5709053 C9.78545264,21.0884354 11.6692831,21.8210361 14.0240712,21.8210361 C15.436944,21.8210361 16.5881737,21.6117216 17.4254317,21.1930926 L17.4254317,16.7974882 L12.1402407,16.7974882 L12.1402407,12.0355835 L23.4432234,12.0355835 L23.4432234,24.5421245 L23.4432234,24.5421245 Z M63.2653061,5.33751962 L55.7299843,5.33751962 L55.7299843,26.3212977 L49.7121926,26.3212977 L49.7121926,5.33751962 L42.1768707,5.33751962 L42.1768707,0.41862899 L63.2653061,0.41862899 L63.2653061,5.33751962 Z M36.159079,26.7922554 C33.0193616,26.7922554 30.5075877,25.9026688 28.7284144,24.1234956 C26.8969126,22.3443223 26.007326,19.9372057 26.007326,16.9021455 C26.007326,13.762428 26.9492412,11.3029827 28.8330717,9.52380952 C30.7169021,7.74463632 33.2286761,6.85504971 36.4207221,6.85504971 C39.5604396,6.85504971 42.0198849,7.74463632 43.7990581,9.52380952 C45.5782313,11.3029827 46.4678179,13.6577708 46.4678179,16.5358451 C46.4678179,19.6755625 45.5259027,22.1873365 43.6944008,23.9665097 C41.862899,25.8503401 39.3511251,26.7922554 36.159079,26.7922554 L36.159079,26.7922554 Z M36.3160649,11.3553114 C34.9555207,11.3553114 33.8566196,11.826269 33.1240188,12.7681842 C32.3390895,13.7100994 31.8681319,15.0706436 31.8681319,16.7974882 C31.8681319,20.4604919 33.4903192,22.2396651 36.4207221,22.2396651 C39.1941392,22.2396651 40.7639979,20.3558346 40.7639979,16.6405024 C40.6593407,13.1344846 39.1418106,11.3553114 36.3160649,11.3553114 L36.3160649,11.3553114 Z M69.126112,26.7922554 C65.9863946,26.7922554 63.4746206,25.9026688 61.6954474,24.1234956 C59.8639456,22.3443223 58.974359,19.9372057 58.974359,16.9021455 C58.974359,13.762428 59.9162742,11.3029827 61.8001047,9.52380952 C63.6839351,7.74463632 66.1957091,6.85504971 69.3877551,6.85504971 C72.5274725,6.85504971 74.9869178,7.74463632 76.7660911,9.52380952 C78.5452643,11.3029827 79.4348509,13.6577708 79.4348509,16.5358451 C79.4348509,19.6755625 78.4929356,22.1873365 76.6614338,23.9665097 C74.8822606,25.8503401 72.318158,26.7922554 69.126112,26.7922554 L69.126112,26.7922554 Z M69.2830979,11.3553114 C67.9225536,11.3553114 66.8236525,11.826269 66.0910518,12.7681842 C65.3061224,13.7100994 64.8351648,15.0706436 64.8351648,16.7974882 C64.8351648,20.4604919 66.4573522,22.2396651 69.3877551,22.2396651 C72.2135008,22.2396651 73.7310309,20.3558346 73.7310309,16.6405024 C73.6263736,13.1344846 72.1088435,11.3553114 69.2830979,11.3553114 L69.2830979,11.3553114 Z M105.180534,7.74463632 L105.180534,26.2689691 L107.849294,26.2689691 L107.849294,0.41862899 L105.494505,0.41862899 L95.970696,20.5128205 C95.7613815,21.0361068 95.6567242,21.4024071 95.552067,21.6640502 L95.3427525,21.140764 C95.2904239,20.9314495 95.1857666,20.722135 95.133438,20.6174778 L85.4526426,0.41862899 L83.0455259,0.41862899 L83.0455259,26.2689691 L85.7666143,26.2689691 L85.7666143,6.75039246 L94.9241235,26.3212977 L96.0753532,26.3212977 L105.232862,6.54107797 C105.180534,7.11669283 105.180534,7.53532182 105.180534,7.74463632 L105.180534,7.74463632 Z M197.383569,7.22135008 L197.383569,9.26216641 C196.075353,7.69230769 194.243851,6.90737834 191.941392,6.90737834 C189.272632,6.90737834 187.127159,7.90162219 185.504971,9.83778127 C183.882784,11.7739403 183.097855,14.1287284 183.097855,17.1637886 C183.097855,20.1988488 183.830455,22.4489796 185.347985,24.1758242 C186.865515,25.9026688 188.854003,26.7922554 191.208791,26.7922554 C193.825222,26.7922554 195.866039,25.8503401 197.383569,24.0188383 C197.174254,28.5714286 194.819466,30.7692308 190.319205,30.7692308 C188.697017,30.7692308 186.917844,30.2459445 185.086342,29.1993721 L184.40607,28.7807431 L184.40607,31.6064887 L184.667713,31.7634746 C186.603872,32.7053898 188.487703,33.1763475 190.319205,33.1763475 C193.615908,33.1763475 196.075353,32.3390895 197.645212,30.6645735 C199.215071,28.9900576 200,26.3212977 200,22.81528 L200,7.22135008 L197.383569,7.22135008 L197.383569,7.22135008 Z M195.761381,22.5536368 C194.66248,23.7571952 193.249608,24.33281 191.418106,24.33281 C189.691261,24.33281 188.383046,23.7048666 187.336473,22.4489796 C186.289901,21.140764 185.766614,19.4139194 185.766614,17.0591313 C185.766614,14.7043433 186.342229,12.9251701 187.493459,11.5122972 C188.644689,10.0994244 190.10989,9.41915228 191.993721,9.41915228 C193.615908,9.41915228 194.871795,9.94243851 195.918367,11.0413396 C196.912611,12.1402407 197.435897,13.3961277 197.435897,14.9136578 L197.435897,18.2626897 C197.383569,19.9372057 196.860283,21.3500785 195.761381,22.5536368 L195.761381,22.5536368 Z M151.805338,2.45944532 L149.241235,3.24437467 L149.241235,7.22135008 L145.944532,7.22135008 L145.944532,9.6807954 L149.241235,9.6807954 L149.241235,21.3500785 C149.241235,25.7456829 151.70068,26.6875981 153.741497,26.6875981 C154.578755,26.6875981 155.416013,26.4782836 156.357928,26.0596546 L156.619571,25.9549974 L156.619571,23.3385662 L155.939299,23.7571952 C155.206698,24.1758242 154.578755,24.33281 153.950811,24.33281 C153.165882,24.33281 152.642595,24.1234956 152.328624,23.7048666 C152.014652,23.2339089 151.805338,22.396651 151.805338,21.2454212 L151.805338,9.78545264 L156.619571,9.78545264 L156.619571,7.32600733 L151.805338,7.32600733 L151.805338,2.45944532 L151.805338,2.45944532 Z M137.571952,6.90737834 C135.007849,6.90737834 132.914704,7.90162219 131.292517,9.83778127 C129.722658,11.7216117 128.8854,13.9717425 128.8854,16.7451596 C128.8854,19.9372057 129.67033,22.2919937 131.18786,24.0711669 C132.70539,25.8503401 134.798535,26.7922554 137.25798,26.7922554 C139.665097,26.7922554 141.915228,26.0596546 143.851387,24.6991104 L144.060701,24.5421245 L144.060701,21.559393 L143.275772,22.1350078 C141.391941,23.6002093 139.508111,24.2804814 137.571952,24.2804814 C135.688121,24.2804814 134.22292,23.6525379 133.176347,22.3443223 C132.182104,21.0884354 131.606489,19.5185767 131.55416,17.3731031 L145.054945,17.3731031 L145.054945,16.1695447 C145.054945,13.3437991 144.427002,11.1459969 143.118786,9.4714809 C141.862899,7.79696494 139.979069,6.90737834 137.571952,6.90737834 L137.571952,6.90737834 Z M137.467295,9.36682365 C138.984825,9.36682365 140.136054,9.89010989 140.973312,10.9366824 C141.758242,11.9309262 142.229199,13.1868132 142.333857,14.9659864 L131.658817,14.9659864 C131.972789,13.1868132 132.600733,11.9309262 133.542648,10.989011 C134.58922,9.89010989 135.897436,9.36682365 137.467295,9.36682365 L137.467295,9.36682365 Z M119.256934,6.90737834 C116.692831,6.90737834 114.599686,7.90162219 112.977499,9.83778127 C111.40764,11.7216117 110.570382,13.9717425 110.570382,16.7451596 C110.570382,19.9372057 111.355311,22.2919937 112.872841,24.0711669 C114.390372,25.8503401 116.431188,26.7922554 118.942962,26.7922554 C121.350078,26.7922554 123.600209,26.0596546 125.536368,24.6991104 L125.745683,24.5421245 L125.745683,21.559393 L124.960754,22.1350078 C123.076923,23.6002093 121.193093,24.2804814 119.256934,24.2804814 C117.373103,24.2804814 115.907902,23.6525379 114.861329,22.3443223 C113.867085,21.0884354 113.29147,19.5185767 113.239142,17.3731031 L126.739927,17.3731031 L126.739927,16.1695447 C126.739927,13.3437991 126.111983,11.1459969 124.803768,9.4714809 C123.547881,7.79696494 121.66405,6.90737834 119.256934,6.90737834 L119.256934,6.90737834 Z M119.204605,9.36682365 C120.722135,9.36682365 121.873365,9.89010989 122.710623,10.9366824 C123.495552,11.9309262 123.96651,13.1868132 124.123496,14.9659864 L113.448456,14.9659864 C113.762428,13.1868132 114.390372,11.9309262 115.332287,10.989011 C116.326531,9.89010989 117.582418,9.36682365 119.204605,9.36682365 L119.204605,9.36682365 Z M162.218734,0.470957614 C161.486133,-0.156985871 160.43956,-0.156985871 159.70696,0.470957614 C159.340659,0.784929356 159.131345,1.25588697 159.131345,1.77917321 C159.131345,2.30245945 159.340659,2.77341706 159.70696,3.13971743 C160.07326,3.50601779 160.491889,3.66300366 160.962847,3.66300366 C161.486133,3.66300366 161.904762,3.45368917 162.271062,3.13971743 C162.637363,2.77341706 162.794349,2.35478807 162.794349,1.83150183 C162.794349,1.25588697 162.585034,0.784929356 162.218734,0.470957614 L162.218734,0.470957614 Z M159.654631,7.22135008 L162.218734,7.22135008 L162.218734,26.3212977 L159.654631,26.3212977 L159.654631,7.22135008 Z M174.201988,6.90737834 C171.742543,6.90737834 169.754055,7.84929356 168.341183,9.62846677 L168.341183,7.16902145 L165.77708,7.16902145 L165.77708,26.2689691 L168.341183,26.2689691 L168.341183,15.5939299 C168.341183,13.8147567 168.864469,12.2972266 169.911041,11.0936682 C170.957614,9.89010989 172.265829,9.31449503 173.888017,9.31449503 C176.766091,9.31449503 178.178964,11.3029827 178.178964,15.436944 L178.178964,26.2689691 L180.743066,26.2689691 L180.743066,14.9659864 C180.743066,12.4542125 180.167452,10.4133961 179.06855,9.05285191 C177.969649,7.63997907 176.295133,6.90737834 174.201988,6.90737834 L174.201988,6.90737834 Z"></path>
        </g>
    </g>
</svg>